<svg xmlns="http://www.w3.org/2000/svg" viewBox="0 0 340 90" fill="none">
  <!-- Lightbulb rays -->
  <line x1="42" y1="10" x2="42" y2="2" stroke="#F5B731" stroke-width="4" stroke-linecap="round"/>
  <line x1="20" y1="20" x2="14" y2="14" stroke="#F5B731" stroke-width="4" stroke-linecap="round"/>
  <line x1="64" y1="20" x2="70" y2="14" stroke="#F5B731" stroke-width="4" stroke-linecap="round"/>
  <!-- Lightbulb body -->
  <path d="M42 18 C26 18 16 30 16 42 C16 52 24 58 30 62 L30 68 L54 68 L54 62 C60 58 68 52 68 42 C68 30 58 18 42 18Z" fill="#F5B731"/>
  <!-- Lightbulb base -->
  <rect x="30" y="70" width="24" height="4" rx="2" fill="#F5B731"/>
  <rect x="32" y="76" width="20" height="4" rx="2" fill="#F5B731"/>
  <rect x="35" y="82" width="14" height="3" rx="1.5" fill="#F5B731"/>
  <!-- Text -->
  <text x="90" y="32" font-family="'Inter', 'Helvetica Neue', system-ui, -apple-system, sans-serif" font-size="24" font-weight="700" fill="#333333" letter-spacing="-0.5">patient</text>
  <text x="90" y="58" font-family="'Inter', 'Helvetica Neue', system-ui, -apple-system, sans-serif" font-size="24" font-weight="700" fill="#333333" letter-spacing="-0.5">education</text>
  <text x="90" y="84" font-family="'Inter', 'Helvetica Neue', system-ui, -apple-system, sans-serif" font-size="24" font-weight="700" fill="#333333" letter-spacing="-0.5">genius</text>
</svg>
